<svg id="grafik" xmlns="http://www.w3.org/2000/svg" viewBox="0 0 194.8252 194.8252"><defs><style>.cls-1{fill:#2e2014;}</style></defs><title>STN20001_material_website_dr</title><path id="Pfad_54" data-name="Pfad 54" class="cls-1" d="M142.09857,110.37739h0V62.42814a1.65643,1.65643,0,0,0-1.65145-1.65144H109.02479V59.124a1.65642,1.65642,0,0,0-1.65145-1.65643H99.1049V49.19291a1.65145,1.65145,0,1,0-3.30289,0v8.266H87.5373a1.65642,1.65642,0,0,0-1.65269,1.65269V60.763H57.77514a1.65641,1.65641,0,0,0-1.65144,1.65144v47.94925h0c-3.197.005-4.95559,1.76478-4.95559,4.96057s1.75855,4.9506,4.95434,4.9506h18.7961l-12.2887,24.05932a1.65518,1.65518,0,0,0,.71861,2.21936,1.62652,1.62652,0,0,0,.74727.18184,1.64522,1.64522,0,0,0,1.46961-.90045l13.06087-25.54014h17.177v24.80782a1.65145,1.65145,0,0,0,3.3029,0V120.29479h17.177l13.0559,25.55882a1.65519,1.65519,0,0,0,1.46962.90045,1.6265,1.6265,0,0,0,.74725-.18184,1.65518,1.65518,0,0,0,.71862-2.22185l-12.28372-24.05558h22.10647c3.197,0,4.95683-1.76354,4.95683-4.95434S145.29435,110.37739,142.09857,110.37739ZM89.18875,60.763h16.54062v3.31161H89.18875Zm-29.7659,3.31161H85.88461v1.6502a1.65644,1.65644,0,0,0,1.65145,1.65145h19.84476a1.65643,1.65643,0,0,0,1.65144-1.65145v-1.6502h29.7659v46.30278H59.42659Zm82.672,52.91853H56.115c-1.39614,0-1.65145-.264-1.65145-1.65145s.264-1.65144,1.65145-1.65144h85.97486c1.39614,0,1.65145.264,1.65145,1.65144s-.25531,1.6502-1.64272,1.6502Z"/></svg>