<svg id="grafik" xmlns="http://www.w3.org/2000/svg" viewBox="0 0 194.8252 194.8252"><defs><style>.cls-1{fill:#2e2014;}</style></defs><title>STN20001_material_website_dr</title><path class="cls-1" d="M146.072,127.10906v-.00141c-.834-14.29788-19.21991-29.30185-21.31377-30.966a2.12055,2.12055,0,0,0-2.82817.16924l-10.065,10.06126L67.69272,62.21061V46.55412A2.1323,2.1323,0,0,0,65.56125,44.425h-.00282a2.11712,2.11712,0,0,0-1.49965.6196L47.52508,61.58254a2.1304,2.1304,0,0,0,1.49776,3.63582H64.67839l44.161,44.17138-10.065,10.06454a2.13813,2.13813,0,0,0-.16924,2.82724c.66.83491,16.3231,20.45958,30.9698,21.32317.33754.01692.66755.03291,1.00415.03291h.00282a15.7824,15.7824,0,0,0,15.50793-16.05232C146.087,127.42685,146.0814,127.268,146.072,127.10906Zm-7.78593,9.075a10.70834,10.70834,0,0,1-8.45537,3.16853c-10.59718-.6149-22.741-13.70225-26.657-18.25619l8.68384-8.68337L125.233,125.78382a2.1175,2.1175,0,0,0,1.50435.622h.00376a2.13079,2.13079,0,0,0,1.50152-3.63958l-13.36706-13.37646,8.68384-8.68385c4.55159,3.92212,17.63471,16.081,18.24773,26.66549a10.67994,10.67994,0,0,1-3.334,8.61332l-.18992.17911ZM63.43072,51.70556V60.954H54.18087Z"/></svg>