<svg id="grafik" xmlns="http://www.w3.org/2000/svg" viewBox="0 0 194.8252 194.8252"><defs><style>.cls-1{fill:#2e2014;}</style></defs><title>STN20001_material_website_dr</title><path class="cls-1" d="M59.30168,178.82466l-14.28139-7.61087c-4.77772-2.54615-9.7012-5.21458-12.93929-9.53712-3.36927-4.49767-4.53522-10.272-6.57767-15.5435-4.03421-10.41226-11.62778-19.1075-15.07734-29.74911C6.6345,104.68763,8.19208,91.80293,9.78764,79.3902c1.44345-11.22931,3.01848-22.84714,8.93969-32.67728C22.59965,40.28428,28.11585,35.00178,33.559,29.8093,42.251,21.51745,51.44822,12.92645,62.86681,9.61635c8.30492-2.40748,17.023-1.77782,25.519-1.12684,20.75287,1.59012,42.83269,3.6836,58.70935,16.59905,6.94325,5.64824,12.21742,13.02522,17.89131,19.94853,4.898,5.9765,10.1752,11.71164,14.00032,18.44845,4.81754,8.48464,7.152,18.29412,7.83758,28.17539,2.3877,34.41252-15.90737,69.86343-44.62821,90.37716-10.02565,7.16078-32.712,7.9126-43.75048,6.76451C93.678,188.30672,66.22193,182.51261,59.30168,178.82466Z"/></svg>