<svg id="grafik" xmlns="http://www.w3.org/2000/svg" viewBox="0 0 194.8252 194.8252"><defs><style>.cls-1{fill:#2e2014;}</style></defs><title>STN20001_material_website_dr</title><path id="Pfad_27" data-name="Pfad 27" class="cls-1" d="M131.63829,121.28875l-21.41212-7.83587V102.759c6.47259-5.44,10.70606-14.37521,10.70606-24.45626,0-16.54049-11.38871-30.00145-25.38265-30.00145s-25.38467,13.461-25.38467,30.00044c0,10.86787,4.91916,20.40583,12.25746,25.67189v9.4793L60.628,121.28875A15.35623,15.35623,0,0,0,49.98157,135.931v11.58289H142.669V135.931C142.669,129.43713,138.34045,123.68463,131.63829,121.28875ZM95.54958,52.93117c10.162,0,18.635,8.9706,20.40584,20.776-.02326,0-.05765.01112-.09305.01112-6.70114,1.29654-10.84562-.891-14.78075-7.77822L98.976,62.25777l-1.95594,3.76117c-2.13494,4.07672-9.2831,7.667-15.31272,7.667A16.1175,16.1175,0,0,1,75.341,72.49355C77.50523,61.28789,85.74665,52.93117,95.54958,52.93117ZM74.79686,78.30169c0-.359,0-.71806.02326-1.06495a21.2239,21.2239,0,0,0,6.89836,1.07607,25.324,25.324,0,0,0,17.22314-7.14108c4.49036,6.25009,9.96576,8.48414,17.3617,7.1876-.02326,13.97067-9.31749,25.325-20.75272,25.325C84.10322,103.66107,74.79686,92.28348,74.79686,78.30169ZM138.03907,142.887H54.61149v-6.956c0-4.74521,2.83176-8.58831,7.58506-10.28938l24.86181-8.94734V106.56666a21.76615,21.76615,0,0,0,8.49526,1.72434,21.98654,21.98654,0,0,0,10.04667-2.45352v10.84461l24.4684,8.95847c4.91916,1.75973,7.97442,5.706,7.97442,10.28938Z"/></svg>